<svg xmlns="http://www.w3.org/2000/svg" viewBox="0 0 19 20"><path fill="#89859c" d="M17.6,2.5c-0.2,0-0.5,0.1-0.7,0.1h0c-0.2,0.1-1.2,0.4-2.7,1c-1.5,0.6-3.5,1.3-5.4,2C4.9,7.1,1.1,8.5,1.1,8.5l0,0c0,0-0.3,0.1-0.5,0.2C0.5,8.8,0.3,8.9,0.2,9.1C0.1,9.2,0,9.5,0,9.8c0.1,0.5,0.4,0.7,0.7,0.9c0.2,0.2,0.5,0.2,0.5,0.2h0L4.7,12c0.2,0.5,1.1,3.1,1.3,3.7c0.1,0.4,0.3,0.6,0.4,0.8c0.1,0.1,0.2,0.2,0.3,0.2c0,0,0.1,0,0.1,0.1c0,0,0,0,0,0l0,0c0,0,0,0,0,0c0,0,0,0,0.1,0c0.6,0.2,1-0.2,1-0.2l0,0l2.1-1.7l3.5,2.4l0.1,0c0.7,0.3,1.5,0.1,1.9-0.2c0.4-0.3,0.6-0.6,0.6-0.6l0-0.1l2.7-12.3c0.1-0.3,0.1-0.6,0-0.9c-0.1-0.3-0.3-0.5-0.6-0.7C18.1,2.5,17.8,2.5,17.6,2.5zM17.5,3.8c0,0,0,0,0,0.1v0l-2.7,12.2c0,0,0,0.1-0.1,0.1c-0.1,0-0.1,0.1-0.3,0l-4.3-2.9l-2.6,2.1L8,12.3c0,0,6.8-5.5,7.1-5.8c0.3-0.2,0.2-0.3,0.2-0.3c0-0.3-0.4-0.1-0.4-0.1L5.9,11l0,0L1.6,9.7v0c0,0,0,0,0,0c0,0,0,0,0,0l0,0l0,0c0,0,3.8-1.4,7.7-2.8c1.9-0.7,3.9-1.4,5.4-2C16.3,4.3,17.4,3.9,17.5,3.8C17.5,3.8,17.5,3.8,17.5,3.8z"/></svg>