<svg xmlns="http://www.w3.org/2000/svg" viewBox="0 0 10 20"><path fill="#89859c" d="M5.072,10.314c2.456,0,4.448-1.992,4.448-4.448c0-2.457-1.991-4.448-4.448-4.448S0.625,3.409,0.625,5.866C0.625,8.322,2.616,10.314,5.072,10.314zM5.072,4.027c1.016,0,1.839,0.824,1.839,1.839S6.088,7.704,5.072,7.704S3.234,6.881,3.234,5.866S4.057,4.027,5.072,4.027zM6.643,13.854c1.781-0.363,2.848-1.206,2.904-1.251c0.521-0.418,0.605-1.179,0.187-1.7c-0.418-0.521-1.179-0.605-1.7-0.187c-0.011,0.009-1.149,0.882-3.022,0.883c0.001,0,0.002,0,0,0c-0.002,0-0.001,0,0,0c-1.873-0.001-3.035-0.875-3.046-0.883c-0.521-0.418-1.282-0.334-1.7,0.187s-0.334,1.282,0.187,1.7c0.058,0.045,1.168,0.911,2.999,1.265L0.9,16.534c-0.463,0.481-0.45,1.246,0.031,1.711c0.235,0.226,0.538,0.338,0.84,0.338c0.317,0,0.633-0.124,0.871-0.37l2.37-2.525l2.61,2.541c0.473,0.472,1.238,0.471,1.711-0.002s0.471-1.238-0.002-1.711L6.643,13.854z"/></svg>